# xmcd
#
# Track frame offsets:
# 150
# 28053
# 43034
# 58639
# 71745
# 84463
# 96350
# 109563
# 122256
# 134845
# 147486
# 159294
# 171467
# 185720
# 197841
#
# Disc length: 2794 seconds
#
#
# Revision: 0
# Processed by: cddbd v1.5.2PL0 Copyright (c) Steve Scherf et al.
# Submitted via: FreeRIP 2.96 
#
DISCID=de0ae80f
DTITLE=Ray Charles - The Distinctive Ray Charles[CD1]
DYEAR=1900
DGENRE=Blues
TTITLE0=What I'd Say
TTITLE1=Hallelujah, I Love Her So
TTITLE2=You are my sunshine
TTITLE3=Baby won't you please come home
TTITLE4=The snow is falling
TTITLE5=Hit the road Jack
TTITLE6=alone in the city
TTITLE7=lonely boy
TTITLE8=Don't put all your dreams in one bascket
TTITLE9=Blues before sunshine
TTITLE10=roll with me baby
TTITLE11=honey,honey
TTITLE12=kiss me baby
TTITLE13=I've had my fun
TTITLE14=Can't you see darling
EXTD=
EXTT0=
EXTT1=
EXTT2=
EXTT3=
EXTT4=
EXTT5=
EXTT6=
EXTT7=
EXTT8=
EXTT9=
EXTT10=
EXTT11=
EXTT12=
EXTT13=
EXTT14=
PLAYORDER=
